Coordinates
version=1
nRows=24
nColumns=36
inDegrees=no

Units are S.I. units (second, meters, Newtons, ...)
If the header above contains a line with 'inDegrees', this indicates whether rotational values are in degrees (yes) or radians (no).

endheader
time	pelvis_tilt	pelvis_list	pelvis_rotation	pelvis_tx	pelvis_ty	pelvis_tz	hip_flexion_r	hip_adduction_r	hip_rotation_r	knee_angle_r	knee_adduction_r	ankle_angle_r	subtalar_angle_r	mtp_angle_r	hip_flexion_l	hip_adduction_l	hip_rotation_l	knee_angle_l	knee_adduction_l	ankle_angle_l	subtalar_angle_l	mtp_angle_l	lumbar_extension	lumbar_bending	lumbar_rotation	arm_flex_r	arm_add_r	arm_rot_r	elbow_flex_r	pro_sup_r	arm_flex_l	arm_add_l	arm_rot_l	elbow_flex_l	pro_sup_l
0.135	-0.144056	-0.0330645	0.00173902	-0.201233	0.922657	-1.20714	0.233557	-0.0952594	-0.218956	0.249263	0.0769169	0.188207	0.181912	-0.128915	0.184285	-0.208974	-0.253832	0.146302	0.127101	0.172108	0.197904	-0.128915	0.0481906	0.00485419	-0.004027	1.24995	-0.20397	0.236877	0.890859	0.445407	1.3455	-0.161365	0.719326	0.649225	2.09
0.14	-0.146033	-0.0326879	0.000771362	-0.20158	0.922552	-1.20701	0.237427	-0.0955669	-0.217993	0.251473	0.0768451	0.187847	0.181557	-0.128915	0.186973	-0.208862	-0.255807	0.147097	0.126737	0.171488	0.199052	-0.128915	0.049087	0.00452696	-0.0035638	1.25771	-0.195755	0.229005	0.871541	0.459744	1.35453	-0.155491	0.719511	0.637031	2.09
0.145	-0.14844	-0.0323207	-0.000113257	-0.201953	0.922398	-1.20685	0.241975	-0.0957899	-0.21729	0.254081	0.0765694	0.187682	0.181383	-0.128915	0.190307	-0.208897	-0.257891	0.14819	0.126405	0.170957	0.200599	-0.128915	0.0503547	0.00386247	-0.00296761	1.26474	-0.188245	0.220447	0.854076	0.472875	1.36321	-0.149622	0.719287	0.625678	2.09
0.15	-0.15114	-0.0319272	-0.000943732	-0.202352	0.922206	-1.20667	0.246999	-0.0960316	-0.216686	0.256961	0.0762323	0.187534	0.181157	-0.128915	0.194068	-0.208951	-0.259853	0.149401	0.126098	0.170358	0.202046	-0.128915	0.0517719	0.00306057	-0.0019877	1.27136	-0.18125	0.210991	0.838364	0.485665	1.37176	-0.143564	0.719186	0.615018	2.09
0.155	-0.154017	-0.0316113	-0.00172461	-0.20278	0.921994	-1.20649	0.252318	-0.0962112	-0.216057	0.259987	0.0759268	0.187353	0.180752	-0.128915	0.19814	-0.209095	-0.261532	0.150715	0.125802	0.169788	0.203227	-0.128915	0.0530793	0.00242832	-0.000750651	1.27784	-0.174423	0.200254	0.824504	0.497155	1.3801	-0.137712	0.719386	0.605972	2.09
0.16	-0.157205	-0.031127	-0.00255262	-0.203228	0.921758	-1.2063	0.258148	-0.0966153	-0.215192	0.263322	0.0757636	0.187207	0.18004	-0.128915	0.202651	-0.20907	-0.263168	0.152182	0.125428	0.169109	0.204304	-0.128915	0.0545756	0.0014461	0.00030966	1.28357	-0.168187	0.189333	0.812941	0.50472	1.38846	-0.132661	0.721137	0.598164	2.09
0.165	-0.160427	-0.0304752	-0.00343582	-0.203675	0.921516	-1.20614	0.264148	-0.0973443	-0.214091	0.266919	0.07584	0.187068	0.179045	-0.128915	0.207253	-0.208806	-0.26448	0.153734	0.125036	0.168325	0.204767	-0.128915	0.0561185	0.000414499	0.00119673	1.28901	-0.162996	0.180899	0.802803	0.508242	1.39696	-0.128565	0.726232	0.591057	2.09
0.17	-0.162863	-0.0302485	-0.00417417	-0.204041	0.921363	-1.20605	0.268761	-0.0977018	-0.213112	0.269652	0.076083	0.186445	0.178258	-0.128915	0.210643	-0.208826	-0.26495	0.154596	0.12479	0.167586	0.204384	-0.128915	0.0567401	6.92684e-05	0.00192556	1.29417	-0.159312	0.176131	0.794747	0.509553	1.40524	-0.125768	0.734474	0.586606	2.09
0.175	-0.165121	-0.0299135	-0.00492406	-0.204443	0.921208	-1.20594	0.273339	-0.0981097	-0.212738	0.27263	0.0759549	0.186235	0.178408	-0.128915	0.213899	-0.208729	-0.265859	0.155595	0.124512	0.167213	0.204449	-0.128915	0.0568867	-0.000279975	0.00241334	1.29952	-0.155724	0.172301	0.78827	0.507459	1.41076	-0.121625	0.726156	0.584172	2.09
0.18	-0.169494	-0.0287062	-0.00586998	-0.20493	0.92085	-1.20574	0.281172	-0.0993098	-0.213934	0.277348	0.0748942	0.187402	0.181222	-0.128915	0.220223	-0.207857	-0.271356	0.158484	0.122988	0.167877	0.210772	-0.128915	0.0594667	-0.00200017	0.00336061	1.30386	-0.152024	0.165834	0.783012	0.504911	1.41725	-0.118151	0.725263	0.581754	2.09
0.185	-0.172643	-0.027706	-0.00657	-0.205407	0.9206	-1.20554	0.28722	-0.100272	-0.213586	0.281126	0.0744972	0.187659	0.18124	-0.128915	0.224848	-0.20716	-0.27263	0.16011	0.122433	0.166933	0.211688	-0.128915	0.0604328	-0.00381488	0.00456733	1.30799	-0.150344	0.163166	0.779872	0.503913	1.42485	-0.114429	0.728567	0.578644	2.09
0.19	-0.176015	-0.0266742	-0.00726737	-0.205895	0.92035	-1.20538	0.293599	-0.101609	-0.213172	0.285161	0.0746487	0.187895	0.181252	-0.128915	0.229774	-0.206261	-0.27382	0.161838	0.12178	0.165884	0.212278	-0.128915	0.0615159	-0.00539723	0.00570885	1.31214	-0.149055	0.162067	0.777493	0.502265	1.43214	-0.111207	0.732189	0.576423	2.09
0.195	-0.179614	-0.0254053	-0.00799002	-0.206396	0.920093	-1.20526	0.300345	-0.103342	-0.212866	0.289408	0.0748942	0.188202	0.18153	-0.128915	0.235001	-0.204903	-0.274535	0.163492	0.120919	0.165408	0.211552	-0.128915	0.062737	-0.00701198	0.00676844	1.31634	-0.148102	0.162578	0.77569	0.500172	1.43916	-0.108666	0.736825	0.575617	2.09
0.2	-0.183437	-0.0238554	-0.00872058	-0.206921	0.919838	-1.20514	0.30752	-0.105372	-0.212609	0.293942	0.075034	0.188571	0.181991	-0.128915	0.240591	-0.203176	-0.274945	0.165174	0.119876	0.165177	0.210156	-0.128915	0.0641051	-0.00892996	0.00797001	1.32037	-0.147604	0.16419	0.774709	0.497904	1.44619	-0.106348	0.742413	0.574906	2.09
0.205	-0.186882	-0.0226204	-0.00941764	-0.207431	0.919624	-1.20501	0.314067	-0.106879	-0.212323	0.297998	0.074978	0.188553	0.182306	-0.128915	0.245686	-0.201874	-0.275479	0.166814	0.119064	0.165046	0.209294	-0.128915	0.0649755	-0.0104262	0.00919031	1.32423	-0.147189	0.166185	0.774635	0.495989	1.45305	-0.10423	0.747812	0.574515	2.09
0.21	-0.190427	-0.0213996	-0.0102112	-0.20797	0.919397	-1.20485	0.320777	-0.108139	-0.211818	0.301972	0.07467	0.188429	0.182442	-0.128915	0.250968	-0.200693	-0.276198	0.168653	0.118262	0.164682	0.208735	-0.128915	0.0658376	-0.0118463	0.0104579	1.32811	-0.146968	0.169153	0.775026	0.493946	1.45993	-0.102533	0.753794	0.574724	2.09
0.215	-0.193881	-0.0202733	-0.0110302	-0.20853	0.91918	-1.20468	0.327384	-0.109179	-0.211132	0.30581	0.0741787	0.188474	0.182103	-0.128915	0.256211	-0.199689	-0.276858	0.17058	0.117513	0.164191	0.208339	-0.128915	0.0664793	-0.0130799	0.0116009	1.33221	-0.146934	0.173277	0.775444	0.491804	1.46663	-0.101054	0.759092	0.575433	2.09
0.22	-0.197628	-0.0189752	-0.0118235	-0.209093	0.918939	-1.20451	0.3345	-0.110566	-0.210398	0.310087	0.0739607	0.188574	0.181665	-0.128915	0.261877	-0.19852	-0.277727	0.172772	0.11672	0.163483	0.20819	-0.128915	0.0674331	-0.0145817	0.0126333	1.33633	-0.14738	0.179237	0.776001	0.489414	1.47323	-0.0996865	0.764088	0.575991	2.09
0.225	-0.201271	-0.0176652	-0.0122797	-0.209652	0.918701	-1.20442	0.341447	-0.112275	-0.209868	0.314451	0.0740526	0.188661	0.181255	-0.128915	0.26758	-0.197159	-0.278516	0.17524	0.115952	0.162686	0.207899	-0.128915	0.0682731	-0.0159975	0.0133862	1.34047	-0.148171	0.186153	0.776714	0.487509	1.47942	-0.0986527	0.770119	0.576197	2.09
0.23	-0.205163	-0.0161549	-0.0122317	-0.210283	0.91843	-1.20445	0.348794	-0.114592	-0.209577	0.319137	0.0744208	0.188787	0.180608	-0.128915	0.274058	-0.19528	-0.278603	0.178127	0.114898	0.162265	0.207083	-0.128915	0.0691809	-0.0173826	0.013588	1.34502	-0.148918	0.194039	0.777226	0.486426	1.48595	-0.0979468	0.778199	0.576826	2.09
0.235	-0.208577	-0.0149031	-0.012477	-0.210953	0.918195	-1.20442	0.355597	-0.116319	-0.209034	0.323481	0.0745177	0.188633	0.179961	-0.128915	0.279986	-0.193969	-0.278531	0.180979	0.114136	0.162004	0.206028	-0.128915	0.0692953	-0.0184915	0.0139842	1.34979	-0.14938	0.200852	0.77785	0.486389	1.49268	-0.0971832	0.785381	0.577677	2.09
0.24	-0.211268	-0.0139224	-0.0129405	-0.211599	0.917987	-1.20433	0.36155	-0.117504	-0.208276	0.327536	0.0744403	0.188538	0.179229	-0.128915	0.284972	-0.193269	-0.278335	0.183699	0.113766	0.161792	0.204845	-0.128915	0.0686724	-0.0197139	0.0148648	1.35428	-0.150177	0.206266	0.77863	0.487316	1.49896	-0.0949995	0.790409	0.577282	2.09
0.245	-0.216614	-0.0125334	-0.0135313	-0.212309	0.91752	-1.20421	0.371183	-0.119215	-0.208592	0.333302	0.0739631	0.189153	0.180289	-0.128915	0.29364	-0.192237	-0.282275	0.188368	0.112082	0.162923	0.209348	-0.128915	0.0712282	-0.0213383	0.0156752	1.35867	-0.1516	0.214638	0.780047	0.468798	1.50659	-0.0950098	0.803662	0.57541	2.09
0.25	-0.220307	-0.0113743	-0.0138967	-0.213039	0.917199	-1.20411	0.378747	-0.120671	-0.207638	0.338321	0.0739155	0.189242	0.179553	-0.128915	0.300271	-0.191438	-0.282902	0.192045	0.111341	0.162923	0.20945	-0.128915	0.0714194	-0.0223914	0.0160144	1.36359	-0.151399	0.219518	0.78053	0.466317	1.51345	-0.0947624	0.812102	0.575266	2.09
